RobotoSerifTextWide-Super 01h.ufo
<glyph name="exclam" format="2">
  <advance width="410"/>
  <unicode hex="0021"/>
  <outline>
    <contour>
      <point x="346" y="710" type="line"/>
      <point x="346" y="548"/>
      <point x="296" y="448"/>
      <point x="296" y="254" type="curve"/>
      <point x="114" y="254" type="line"/>
      <point x="114" y="448"/>
      <point x="65" y="547"/>
      <point x="65" y="710" type="curve"/>
    </contour>
    <component base="period" xOffset="4"/>
  </outline>
</glyph>
<glyph name="quotesingle" format="2">
  <advance width="301"/>
  <unicode hex="0027"/>
  <outline>
    <contour>
      <point x="251" y="710" type="line"/>
      <point x="251" y="617"/>
      <point x="220" y="587"/>
      <point x="220" y="447" type="curve"/>
      <point x="81" y="447" type="line"/>
      <point x="81" y="587"/>
      <point x="50" y="616"/>
      <point x="50" y="710" type="curve"/>
    </contour>
  </outline>
</glyph>
<glyph name="zero" format="2">
  <advance width="666"/>
  <unicode hex="0030"/>
  <outline>
    <contour>
      <point x="333" y="-11" type="curve" smooth="yes"/>
      <point x="520" y="-11"/>
      <point x="652" y="109"/>
      <point x="652" y="304" type="curve" smooth="yes"/>
      <point x="652" y="499"/>
      <point x="519" y="619"/>
      <point x="333" y="619" type="curve" smooth="yes"/>
      <point x="147" y="619"/>
      <point x="14" y="499"/>
      <point x="14" y="304" type="curve" smooth="yes"/>
      <point x="14" y="109"/>
      <point x="146" y="-11"/>
    </contour>
    <contour>
      <point x="333" y="78" type="curve" smooth="yes"/>
      <point x="295.4" y="78.0"/>
      <point x="286" y="117"/>
      <point x="286" y="304" type="curve" smooth="yes"/>
      <point x="286" y="491"/>
      <point x="295.4" y="530.0"/>
      <point x="333" y="530" type="curve" smooth="yes"/>
      <point x="370.6" y="530.0"/>
      <point x="380" y="491"/>
      <point x="380" y="304" type="curve" smooth="yes"/>
      <point x="380" y="117"/>
      <point x="370.6" y="78.0"/>
    </contour>
  </outline>
</glyph>
<glyph name="three" format="2">
  <advance width="666"/>
  <unicode hex="0033"/>
  <outline>
    <contour>
      <point x="281" y="3" type="curve" smooth="yes"/>
      <point x="351" y="3"/>
      <point x="388" y="44"/>
      <point x="388" y="121" type="curve" smooth="yes"/>
      <point x="388.0" y="190.0"/>
      <point x="368.25373134328356" y="241"/>
      <point x="262" y="241" type="curve" smooth="yes"/>
      <point x="201" y="241" type="line"/>
      <point x="201" y="326" type="line"/>
      <point x="247" y="326" type="line" smooth="yes"/>
      <point x="339.2773722627737" y="326"/>
      <point x="376.0" y="363.0"/>
      <point x="376" y="448" type="curve" smooth="yes"/>
      <point x="376" y="506"/>
      <point x="353" y="529"/>
      <point x="314" y="529" type="curve" smooth="yes"/>
      <point x="276" y="529"/>
      <point x="250" y="508"/>
      <point x="232" y="482" type="curve"/>
      <point x="227" y="490"/>
      <point x="227" y="536"/>
      <point x="265" y="539" type="curve"/>
      <point x="265" y="424" type="line"/>
      <point x="61" y="424" type="line"/>
      <point x="61" y="542" type="line"/>
      <point x="113" y="581"/>
      <point x="210" y="618"/>
      <point x="343" y="618" type="curve" smooth="yes"/>
      <point x="500" y="618"/>
      <point x="634" y="566"/>
      <point x="634" y="451" type="curve" smooth="yes"/>
      <point x="634" y="330"/>
      <point x="465" y="277"/>
      <point x="254" y="277" type="curve"/>
      <point x="275" y="295" type="line"/>
      <point x="546" y="295"/>
      <point x="654" y="226"/>
      <point x="654" y="114" type="curve" smooth="yes"/>
      <point x="654" y="-19"/>
      <point x="509" y="-90"/>
      <point x="329" y="-90" type="curve" smooth="yes"/>
      <point x="137" y="-90"/>
      <point x="57" y="-14"/>
      <point x="14" y="74" type="curve"/>
      <point x="102" y="134" type="line"/>
      <point x="136.879361309159" y="67.31886808543132"/>
      <point x="191" y="3.0"/>
    </contour>
  </outline>
</glyph>
<glyph name="eight" format="2">
  <advance width="666"/>
  <unicode hex="0038"/>
  <outline>
    <contour>
      <point x="333" y="83" type="curve" smooth="yes"/>
      <point x="299.34" y="83.0"/>
      <point x="282" y="119"/>
      <point x="282" y="207" type="curve" smooth="yes"/>
      <point x="282" y="300"/>
      <point x="298.32" y="332.0"/>
      <point x="333" y="332" type="curve" smooth="yes"/>
      <point x="367.68" y="332.0"/>
      <point x="384" y="300"/>
      <point x="384" y="207" type="curve" smooth="yes"/>
      <point x="384" y="119"/>
      <point x="366.66" y="83.0"/>
    </contour>
    <contour>
      <point x="333" y="-10" type="curve" smooth="yes"/>
      <point x="537" y="-10"/>
      <point x="656" y="76"/>
      <point x="656" y="201" type="curve" smooth="yes"/>
      <point x="656" y="325"/>
      <point x="531" y="396"/>
      <point x="333" y="396" type="curve" smooth="yes"/>
      <point x="135" y="396"/>
      <point x="10" y="325"/>
      <point x="10" y="201" type="curve" smooth="yes"/>
      <point x="10" y="76"/>
      <point x="129" y="-10"/>
    </contour>
    <contour>
      <point x="333" y="420" type="curve" smooth="yes"/>
      <point x="302.3181818181818" y="420.0"/>
      <point x="288" y="446"/>
      <point x="288" y="525" type="curve" smooth="yes"/>
      <point x="288" y="600"/>
      <point x="302.3181818181818" y="627.0"/>
      <point x="333" y="627" type="curve" smooth="yes"/>
      <point x="363.6818181818182" y="627.0"/>
      <point x="378" y="600"/>
      <point x="378" y="525" type="curve" smooth="yes"/>
      <point x="378" y="446"/>
      <point x="363.6818181818182" y="420.0"/>
    </contour>
    <contour>
      <point x="333" y="361" type="curve" smooth="yes"/>
      <point x="517" y="361"/>
      <point x="626" y="427"/>
      <point x="626" y="539" type="curve" smooth="yes"/>
      <point x="626" y="645"/>
      <point x="516" y="720"/>
      <point x="333" y="720" type="curve" smooth="yes"/>
      <point x="150" y="720"/>
      <point x="39" y="645"/>
      <point x="39" y="539" type="curve" smooth="yes"/>
      <point x="39" y="427"/>
      <point x="149" y="361"/>
    </contour>
  </outline>
</glyph>
<glyph name="nine" format="2">
  <advance width="666"/>
  <unicode hex="0039"/>
  <outline>
    <contour>
      <point x="78" y="-19" type="line"/>
      <point x="265" y="7"/>
      <point x="382" y="110"/>
      <point x="382" y="338" type="curve" smooth="yes"/>
      <point x="382.0" y="498.0"/>
      <point x="367.3777777777778" y="534.0"/>
      <point x="335" y="534" type="curve" smooth="yes"/>
      <point x="300.5652173913044" y="534.0"/>
      <point x="287.0" y="496.0"/>
      <point x="287" y="393" type="curve" smooth="yes"/>
      <point x="287" y="310"/>
      <point x="293.2352941176471" y="262.0"/>
      <point x="340" y="262" type="curve" smooth="yes"/>
      <point x="372" y="262"/>
      <point x="393" y="286"/>
      <point x="424" y="348" type="curve"/>
      <point x="429" y="277" type="line"/>
      <point x="410" y="229"/>
      <point x="365" y="177"/>
      <point x="259" y="177" type="curve" smooth="yes"/>
      <point x="116" y="177"/>
      <point x="18" y="249"/>
      <point x="18" y="387" type="curve" smooth="yes"/>
      <point x="18" y="530"/>
      <point x="142" y="619"/>
      <point x="328" y="619" type="curve" smooth="yes"/>
      <point x="534" y="619"/>
      <point x="648" y="529"/>
      <point x="648" y="330" type="curve" smooth="yes"/>
      <point x="648" y="90"/>
      <point x="439" y="-76"/>
      <point x="95" y="-104" type="curve"/>
    </contour>
  </outline>
</glyph>
<glyph name="A" format="2">
  <advance width="888"/>
  <unicode hex="0041"/>
  <anchor x="419" y="721.0" name="top"/>
  <anchor x="662" y="0.0" name="right"/>
  <anchor x="419" y="0.0" name="bottom"/>
  <outline>
    <contour>
      <point x="186" y="309" type="line"/>
      <point x="186" y="224" type="line"/>
      <point x="494" y="224" type="line"/>
      <point x="494" y="309" type="line"/>
    </contour>
    <contour>
      <point x="305" y="642" type="line"/>
      <point x="506" y="86" type="line"/>
      <point x="506" y="79"/>
      <point x="478" y="76"/>
      <point x="449" y="76" type="curve" smooth="yes"/>
      <point x="431" y="76" type="line"/>
      <point x="431" y="0" type="line"/>
      <point x="876" y="0" type="line"/>
      <point x="876" y="76" type="line"/>
      <point x="871" y="76" type="line"/>
      <point x="844" y="76"/>
      <point x="828" y="81"/>
      <point x="819" y="104" type="curve" smooth="yes"/>
      <point x="589" y="710" type="line"/>
      <point x="293" y="710" type="line"/>
      <point x="69" y="119" type="line" smooth="yes"/>
      <point x="56" y="85"/>
      <point x="44" y="76"/>
      <point x="18" y="76" type="curve"/>
      <point x="12" y="76" type="line"/>
      <point x="12" y="0" type="line"/>
      <point x="248" y="0" type="line"/>
      <point x="248" y="76" type="line"/>
      <point x="234" y="76" type="line" smooth="yes"/>
      <point x="206" y="76"/>
      <point x="180" y="83"/>
      <point x="180" y="94" type="curve"/>
      <point x="355" y="585" type="line"/>
    </contour>
  </outline>
</glyph>
<glyph name="B" format="2">
  <advance width="899"/>
  <unicode hex="0042"/>
  <outline>
    <contour>
      <point x="530" y="710" type="curve" smooth="yes"/>
      <point x="26" y="710" type="line"/>
      <point x="26" y="634" type="line"/>
      <point x="38" y="634" type="line" smooth="yes"/>
      <point x="68" y="634"/>
      <point x="89" y="627"/>
      <point x="89" y="598" type="curve" smooth="yes"/>
      <point x="89" y="112" type="line" smooth="yes"/>
      <point x="89" y="83"/>
      <point x="68" y="76"/>
      <point x="38" y="76" type="curve" smooth="yes"/>
      <point x="26" y="76" type="line"/>
      <point x="26" y="0" type="line"/>
      <point x="540" y="0" type="line" smooth="yes"/>
      <point x="756.0" y="0.0"/>
      <point x="872.0" y="75.0"/>
      <point x="872" y="200" type="curve" smooth="yes"/>
      <point x="872" y="317"/>
      <point x="752" y="378"/>
      <point x="600" y="380" type="curve"/>
      <point x="612" y="362" type="line"/>
      <point x="612" y="386" type="line"/>
      <point x="590" y="371" type="line"/>
      <point x="725" y="379"/>
      <point x="839" y="435"/>
      <point x="839" y="539" type="curve" smooth="yes"/>
      <point x="839" y="645"/>
      <point x="733.0" y="710.0"/>
    </contour>
    <contour>
      <point x="398" y="84" type="line"/>
      <point x="398" y="626" type="line"/>
      <point x="438" y="626" type="line" smooth="yes"/>
      <point x="502.0" y="626.0"/>
      <point x="532.0" y="590"/>
      <point x="532" y="525" type="curve" smooth="yes"/>
      <point x="532.0" y="450"/>
      <point x="507.0" y="411.0"/>
      <point x="430" y="411" type="curve" smooth="yes"/>
      <point x="351" y="411" type="line"/>
      <point x="351" y="330" type="line"/>
      <point x="435" y="330" type="line" smooth="yes"/>
      <point x="529.0" y="330.0"/>
      <point x="559" y="286"/>
      <point x="559" y="209" type="curve" smooth="yes"/>
      <point x="559" y="124"/>
      <point x="520.0" y="84.0"/>
      <point x="443" y="84" type="curve" smooth="yes"/>
    </contour>
  </outline>
</glyph>
<glyph name="C" format="2">
  <advance width="825"/>
  <unicode hex="0043"/>
  <outline>
    <contour>
      <point x="503" y="626" type="curve" smooth="yes"/>
      <point x="585" y="626"/>
      <point x="634" y="559"/>
      <point x="661" y="481" type="curve"/>
      <point x="791" y="481" type="line"/>
      <point x="791" y="710" type="line"/>
      <point x="675" y="710" type="line"/>
      <point x="651" y="535" type="line"/>
      <point x="727" y="522" type="line"/>
      <point x="690" y="642"/>
      <point x="622" y="720"/>
      <point x="445" y="720" type="curve" smooth="yes"/>
      <point x="218" y="720"/>
      <point x="33" y="574"/>
      <point x="33" y="355" type="curve" smooth="yes"/>
      <point x="33" y="137"/>
      <point x="212" y="-10"/>
      <point x="475" y="-10" type="curve" smooth="yes"/>
      <point x="672" y="-10"/>
      <point x="768" y="90"/>
      <point x="801" y="236" type="curve"/>
      <point x="701" y="268" type="line"/>
      <point x="678" y="158"/>
      <point x="616" y="84"/>
      <point x="519" y="84" type="curve" smooth="yes"/>
      <point x="405" y="84"/>
      <point x="354" y="173"/>
      <point x="354" y="355" type="curve" smooth="yes"/>
      <point x="354" y="529"/>
      <point x="399" y="626"/>
    </contour>
  </outline>
</glyph>
<glyph name="K" format="2">
  <advance width="981"/>
  <unicode hex="004B"/>
  <anchor x="445.74" y="741.0" name="top"/>
  <anchor x="445.74" y="0.0" name="bottom"/>
  <outline>
    <contour>
      <point x="26" y="0" type="line"/>
      <point x="452" y="0" type="line"/>
      <point x="452" y="76" type="line"/>
      <point x="442" y="76" type="line" smooth="yes"/>
      <point x="421" y="76"/>
      <point x="398" y="79"/>
      <point x="398" y="86" type="curve" smooth="yes"/>
      <point x="398" y="624" type="line" smooth="yes"/>
      <point x="398" y="631"/>
      <point x="434" y="634"/>
      <point x="470" y="634" type="curve" smooth="yes"/>
      <point x="483" y="634" type="line"/>
      <point x="483" y="710" type="line"/>
      <point x="26" y="710" type="line"/>
      <point x="26" y="634" type="line"/>
      <point x="38" y="634" type="line" smooth="yes"/>
      <point x="68" y="634"/>
      <point x="89" y="627"/>
      <point x="89" y="598" type="curve" smooth="yes"/>
      <point x="89" y="112" type="line" smooth="yes"/>
      <point x="89" y="83"/>
      <point x="68" y="76"/>
      <point x="38" y="76" type="curve" smooth="yes"/>
      <point x="26" y="76" type="line"/>
    </contour>
    <contour>
      <point x="515" y="0" type="line"/>
      <point x="963" y="0" type="line"/>
      <point x="963" y="76" type="line"/>
      <point x="951" y="76" type="line" smooth="yes"/>
      <point x="926" y="76"/>
      <point x="912" y="85"/>
      <point x="897" y="109" type="curve" smooth="yes"/>
      <point x="670" y="487" type="line"/>
      <point x="561" y="352" type="line"/>
      <point x="800" y="597" type="line" smooth="yes"/>
      <point x="831" y="627"/>
      <point x="850" y="634"/>
      <point x="888" y="634" type="curve" smooth="yes"/>
      <point x="913" y="634" type="line"/>
      <point x="913" y="710" type="line"/>
      <point x="594" y="710" type="line"/>
      <point x="594" y="634" type="line"/>
      <point x="606" y="634" type="line" smooth="yes"/>
      <point x="640" y="634"/>
      <point x="687" y="633"/>
      <point x="686" y="626" type="curve"/>
      <point x="427" y="363" type="line"/>
      <point x="427" y="333" type="line"/>
      <point x="570" y="86" type="line"/>
      <point x="570" y="79"/>
      <point x="546" y="76"/>
      <point x="524" y="76" type="curve" smooth="yes"/>
      <point x="515" y="76" type="line"/>
    </contour>
  </outline>
</glyph>
<glyph name="N" format="2">
  <advance width="891"/>
  <unicode hex="004E"/>
  <anchor x="486.2199999999999" y="741.0" name="top"/>
  <anchor x="480" y="0.0" name="bottom"/>
  <outline>
    <contour>
      <point x="26" y="0" type="line"/>
      <point x="282" y="0" type="line"/>
      <point x="282" y="76" type="line"/>
      <point x="268" y="76" type="line" smooth="yes"/>
      <point x="237" y="76"/>
      <point x="207" y="84"/>
      <point x="207" y="91" type="curve" smooth="yes"/>
      <point x="207" y="657" type="line"/>
      <point x="164" y="670" type="line"/>
      <point x="505" y="0" type="line"/>
      <point x="802" y="0" type="line"/>
      <point x="802" y="597" type="line" smooth="yes"/>
      <point x="802" y="626"/>
      <point x="824" y="634"/>
      <point x="854" y="634" type="curve" smooth="yes"/>
      <point x="866" y="634" type="line"/>
      <point x="866" y="710" type="line"/>
      <point x="610" y="710" type="line"/>
      <point x="610" y="634" type="line"/>
      <point x="624" y="634" type="line" smooth="yes"/>
      <point x="654" y="634"/>
      <point x="685" y="626"/>
      <point x="685" y="619" type="curve" smooth="yes"/>
      <point x="685" y="198" type="line"/>
      <point x="727" y="175" type="line"/>
      <point x="475" y="710" type="line"/>
      <point x="26" y="710" type="line"/>
      <point x="26" y="634" type="line"/>
      <point x="38" y="634" type="line" smooth="yes"/>
      <point x="68" y="634"/>
      <point x="89" y="627"/>
      <point x="89" y="598" type="curve" smooth="yes"/>
      <point x="89" y="117" type="line" smooth="yes"/>
      <point x="89" y="88"/>
      <point x="68" y="76"/>
      <point x="38" y="76" type="curve" smooth="yes"/>
      <point x="26" y="76" type="line"/>
    </contour>
  </outline>
</glyph>
<glyph name="P" format="2">
  <advance width="853"/>
  <unicode hex="0050"/>
  <outline>
    <contour>
      <point x="398" y="86" type="line"/>
      <point x="398" y="79"/>
      <point x="424" y="76"/>
      <point x="446" y="76" type="curve" smooth="yes"/>
      <point x="475" y="76" type="line"/>
      <point x="475" y="0" type="line"/>
      <point x="26" y="0" type="line"/>
      <point x="26" y="76" type="line"/>
      <point x="38" y="76" type="line" smooth="yes"/>
      <point x="68" y="76"/>
      <point x="89" y="83"/>
      <point x="89" y="112" type="curve" smooth="yes"/>
      <point x="89" y="598" type="line" smooth="yes"/>
      <point x="89" y="627"/>
      <point x="68" y="634"/>
      <point x="38" y="634" type="curve" smooth="yes"/>
      <point x="26" y="634" type="line"/>
      <point x="26" y="710" type="line"/>
      <point x="518" y="710" type="line" smooth="yes"/>
      <point x="728.0" y="710.0"/>
      <point x="845.0" y="633.0"/>
      <point x="845" y="496" type="curve" smooth="yes"/>
      <point x="845.0" y="354.0"/>
      <point x="719.0" y="268.0"/>
      <point x="511" y="268" type="curve" smooth="yes"/>
      <point x="368" y="268" type="line"/>
      <point x="368" y="355" type="line"/>
      <point x="434" y="355" type="line" smooth="yes"/>
      <point x="499.2053571428571" y="355"/>
      <point x="543.0" y="400.0"/>
      <point x="543" y="492" type="curve" smooth="yes"/>
      <point x="543.0" y="583.0"/>
      <point x="502.0" y="623.0"/>
      <point x="437" y="623" type="curve" smooth="yes"/>
      <point x="398" y="623" type="line"/>
    </contour>
  </outline>
</glyph>
<glyph name="Q" format="2">
  <advance width="967"/>
  <unicode hex="0051"/>
  <outline>
    <contour>
      <point x="420" y="3" type="line"/>
      <point x="416" y="-162"/>
      <point x="509" y="-228"/>
      <point x="716" y="-228" type="curve" smooth="yes"/>
      <point x="783" y="-228"/>
      <point x="849.4684622638545" y="-215.8274804246691"/>
      <point x="887" y="-198" type="curve"/>
      <point x="887" y="-35" type="line"/>
      <point x="854.7657079419163" y="-48.272943788622705"/>
      <point x="779" y="-72"/>
      <point x="689" y="-72" type="curve" smooth="yes"/>
      <point x="593" y="-72"/>
      <point x="550" y="-54"/>
      <point x="555" y="10" type="curve"/>
    </contour>
    <contour>
      <point x="484" y="720" type="curve" smooth="yes"/>
      <point x="218.0" y="720.0"/>
      <point x="33.0" y="575.0"/>
      <point x="33" y="355" type="curve" smooth="yes"/>
      <point x="33.0" y="134"/>
      <point x="218.0" y="-10.0"/>
      <point x="484" y="-10" type="curve" smooth="yes"/>
      <point x="750" y="-10"/>
      <point x="935" y="134"/>
      <point x="935" y="355" type="curve" smooth="yes"/>
      <point x="935.0" y="575.0"/>
      <point x="750.0" y="720.0"/>
    </contour>
    <contour>
      <point x="484.0" y="83.0" type="curve" smooth="yes"/>
      <point x="400" y="83.0"/>
      <point x="354.0" y="170"/>
      <point x="354.0" y="355.0" type="curve" smooth="yes"/>
      <point x="354.0" y="540"/>
      <point x="400" y="627.0"/>
      <point x="484.0" y="627.0" type="curve" smooth="yes"/>
      <point x="568" y="627.0"/>
      <point x="614.0" y="540"/>
      <point x="614.0" y="355.0" type="curve" smooth="yes"/>
      <point x="614.0" y="170"/>
      <point x="568" y="83.0"/>
    </contour>
  </outline>
</glyph>
<glyph name="R" format="2">
  <advance width="923"/>
  <unicode hex="0052"/>
  <anchor x="462.44000000000005" y="741.0" name="top"/>
  <anchor x="462.44000000000005" y="0.0" name="bottom"/>
  <outline>
    <contour>
      <point x="429" y="319" type="line"/>
      <point x="728" y="342" type="line"/>
      <point x="852" y="104" type="line" smooth="yes"/>
      <point x="864" y="82"/>
      <point x="876" y="76"/>
      <point x="894" y="76" type="curve" smooth="yes"/>
      <point x="904" y="76" type="line"/>
      <point x="904" y="0" type="line"/>
      <point x="575" y="0" type="line"/>
    </contour>
    <contour>
      <point x="26" y="0" type="line"/>
      <point x="26" y="76" type="line"/>
      <point x="38" y="76" type="line" smooth="yes"/>
      <point x="68" y="76"/>
      <point x="89" y="83"/>
      <point x="89" y="112" type="curve" smooth="yes"/>
      <point x="89" y="598" type="line" smooth="yes"/>
      <point x="89" y="627"/>
      <point x="68" y="634"/>
      <point x="38" y="634" type="curve" smooth="yes"/>
      <point x="26" y="634" type="line"/>
      <point x="26" y="710" type="line"/>
      <point x="528" y="710" type="line" smooth="yes"/>
      <point x="744.0" y="710.0"/>
      <point x="857" y="630"/>
      <point x="857" y="505" type="curve" smooth="yes"/>
      <point x="857" y="381"/>
      <point x="733" y="291"/>
      <point x="497" y="287" type="curve"/>
      <point x="497" y="286"/>
      <point x="497" y="285"/>
      <point x="492" y="285" type="curve"/>
      <point x="374" y="285" type="line"/>
      <point x="374" y="369" type="line"/>
      <point x="435.0" y="369.0" type="line" smooth="yes"/>
      <point x="504.6019417475728" y="369.0"/>
      <point x="542.0" y="420.0"/>
      <point x="542" y="505" type="curve" smooth="yes"/>
      <point x="542.0" y="586.0"/>
      <point x="504.5154639175258" y="625.0"/>
      <point x="441.0" y="625.0" type="curve" smooth="yes"/>
      <point x="398" y="625" type="line"/>
      <point x="398" y="86" type="line" smooth="yes"/>
      <point x="398" y="79"/>
      <point x="420" y="76"/>
      <point x="442" y="76" type="curve" smooth="yes"/>
      <point x="453" y="76" type="line"/>
      <point x="453" y="0" type="line"/>
    </contour>
  </outline>
</glyph>
<glyph name="S" format="2">
  <advance width="755"/>
  <unicode hex="0053"/>
  <anchor x="416" y="741.0" name="top"/>
  <anchor x="416" y="0.0" name="bottom"/>
  <outline>
    <contour>
      <point x="385" y="82" type="curve" smooth="yes"/>
      <point x="297.7787610619469" y="82.0"/>
      <point x="202.93613202871794" y="132.13990127042734"/>
      <point x="161" y="224" type="curve"/>
      <point x="26" y="224" type="line"/>
      <point x="26" y="0" type="line"/>
      <point x="135" y="0" type="line"/>
      <point x="162" y="169" type="line"/>
      <point x="160" y="173"/>
      <point x="120" y="155"/>
      <point x="88" y="181" type="curve"/>
      <point x="147.00055340941012" y="36.9986493058465"/>
      <point x="274" y="-10.0"/>
      <point x="413" y="-10" type="curve" smooth="yes"/>
      <point x="630" y="-10"/>
      <point x="744.0" y="89.0"/>
      <point x="744" y="236" type="curve" smooth="yes"/>
      <point x="744" y="386"/>
      <point x="619" y="431"/>
      <point x="478" y="465" type="curve" smooth="yes"/>
      <point x="353" y="495"/>
      <point x="291" y="505"/>
      <point x="291" y="563" type="curve" smooth="yes"/>
      <point x="291" y="606"/>
      <point x="323" y="629"/>
      <point x="386" y="629" type="curve" smooth="yes"/>
      <point x="464" y="629.0"/>
      <point x="535.9107001187003" y="592.2641788155116"/>
      <point x="560" y="521" type="curve"/>
      <point x="684" y="521" type="line"/>
      <point x="684" y="710" type="line"/>
      <point x="581" y="710" type="line"/>
      <point x="552" y="566" type="line"/>
      <point x="578" y="558"/>
      <point x="601" y="568"/>
      <point x="627" y="555" type="curve"/>
      <point x="579.693300688814" y="678.8026386228909"/>
      <point x="494.2142857142857" y="720.0"/>
      <point x="341" y="720" type="curve" smooth="yes"/>
      <point x="172.3615635179153" y="720.0"/>
      <point x="40.0" y="642.0"/>
      <point x="40" y="501" type="curve" smooth="yes"/>
      <point x="40.0" y="348.3640167364017"/>
      <point x="161.9574746486853" y="300.0119315733904"/>
      <point x="301" y="261" type="curve" smooth="yes"/>
      <point x="427.91210416418636" y="225.02491535503378"/>
      <point x="489.0" y="212.0035153905513"/>
      <point x="489" y="155" type="curve" smooth="yes"/>
      <point x="489.0" y="106.01315789473685"/>
      <point x="454.0" y="82.0"/>
    </contour>
  </outline>
</glyph>
<glyph name="a" format="2">
  <advance width="732"/>
  <unicode hex="0061"/>
  <anchor x="298.52" y="553.0" name="top"/>
  <anchor x="483.68000000000006" y="-10.0" name="right"/>
  <anchor x="331.91999999999996" y="0.0" name="bottom"/>
  <outline>
    <contour>
      <point x="417" y="312" type="line"/>
      <point x="129.97132476851726" y="284.99730233013923"/>
      <point x="20.0" y="238.7872340425532"/>
      <point x="20" y="126" type="curve" smooth="yes"/>
      <point x="20.0" y="35.67164179104478"/>
      <point x="93.0" y="-10.0"/>
      <point x="211" y="-10.0" type="curve" smooth="yes"/>
      <point x="324.0" y="-10.0"/>
      <point x="383" y="22"/>
      <point x="417" y="79" type="curve"/>
      <point x="417" y="168" type="line"/>
      <point x="398.46577113684515" y="113.37279914017522"/>
      <point x="368.42857142857144" y="80.0"/>
      <point x="332" y="80" type="curve" smooth="yes"/>
      <point x="300.6530612244898" y="80.0"/>
      <point x="284.0" y="98.6"/>
      <point x="284" y="142" type="curve" smooth="yes"/>
      <point x="284.0" y="195.95238095238096"/>
      <point x="320.9628492294859" y="231.99496916649287"/>
      <point x="417" y="245" type="curve"/>
    </contour>
    <contour>
      <point x="410" y="0" type="line"/>
      <point x="718" y="0" type="line"/>
      <point x="718" y="74" type="line"/>
      <point x="709" y="76" type="line" smooth="yes"/>
      <point x="686" y="81"/>
      <point x="678" y="85"/>
      <point x="678" y="103" type="curve" smooth="yes"/>
      <point x="678.0" y="321" type="line" smooth="yes"/>
      <point x="678" y="467.0"/>
      <point x="568" y="523"/>
      <point x="364" y="523" type="curve" smooth="yes"/>
      <point x="194" y="523"/>
      <point x="98.8340123714786" y="474.8956649192151"/>
      <point x="64" y="453" type="curve"/>
      <point x="64" y="343" type="line"/>
      <point x="278" y="343" type="line"/>
      <point x="278" y="446" type="line"/>
      <point x="221" y="441"/>
      <point x="204" y="410"/>
      <point x="248" y="387" type="curve"/>
      <point x="262.0716155593243" y="415.14323111864866"/>
      <point x="296" y="437.0"/>
      <point x="335" y="437" type="curve" smooth="yes"/>
      <point x="375" y="437"/>
      <point x="394.0" y="420.0"/>
      <point x="394" y="378" type="curve" smooth="yes"/>
      <point x="394" y="93" type="line"/>
      <point x="410" y="96" type="line"/>
    </contour>
  </outline>
</glyph>
<glyph name="e" format="2">
  <advance width="729"/>
  <unicode hex="0065"/>
  <anchor x="332.91999999999996" y="551.0" name="top"/>
  <anchor x="516.08" y="1.0" name="right"/>
  <anchor x="357.7" y="0.0" name="bottom"/>
  <outline>
    <contour>
      <point x="397" y="-10" type="curve" smooth="yes"/>
      <point x="550" y="-10"/>
      <point x="641" y="44"/>
      <point x="689" y="124" type="curve"/>
      <point x="614" y="180" type="line"/>
      <point x="575.0" y="124.0"/>
      <point x="534.7328767123288" y="83.0"/>
      <point x="451" y="83" type="curve" smooth="yes"/>
      <point x="345" y="83"/>
      <point x="319" y="137"/>
      <point x="319" y="255" type="curve" smooth="yes"/>
      <point x="319" y="391"/>
      <point x="343" y="434"/>
      <point x="383" y="434" type="curve" smooth="yes"/>
      <point x="425" y="434"/>
      <point x="443.95181832341984" y="400.8200093457118"/>
      <point x="442" y="272" type="curve"/>
      <point x="465" y="302" type="line"/>
      <point x="298" y="302" type="line"/>
      <point x="298" y="222" type="line"/>
      <point x="705" y="222" type="line"/>
      <point x="704" y="423"/>
      <point x="590" y="523"/>
      <point x="376" y="523" type="curve" smooth="yes"/>
      <point x="168" y="523"/>
      <point x="27" y="416"/>
      <point x="27" y="255" type="curve" smooth="yes"/>
      <point x="27" y="91"/>
      <point x="160" y="-10"/>
    </contour>
  </outline>
</glyph>
<glyph name="l" format="2">
  <advance width="405"/>
  <unicode hex="006C"/>
  <anchor x="192.78" y="741.84" name="top"/>
  <anchor x="319.76" y="730.84" name="right"/>
  <anchor x="386.56" y="391.0" name="mid"/>
  <anchor x="196.31999999999996" y="0.0" name="bottom"/>
  <outline>
    <contour>
      <point x="351" y="735" type="line"/>
      <point x="19" y="735" type="line"/>
      <point x="19" y="661" type="line"/>
      <point x="27" y="659" type="line" smooth="yes"/>
      <point x="51" y="652"/>
      <point x="60" y="648"/>
      <point x="60" y="630" type="curve" smooth="yes"/>
      <point x="60" y="98" type="line" smooth="yes"/>
      <point x="60" y="77"/>
      <point x="41" y="71"/>
      <point x="20" y="71" type="curve" smooth="yes"/>
      <point x="19" y="71" type="line"/>
      <point x="19" y="0" type="line"/>
      <point x="391" y="0" type="line"/>
      <point x="391" y="71" type="line"/>
      <point x="390" y="71" type="line" smooth="yes"/>
      <point x="368" y="71"/>
      <point x="351" y="77"/>
      <point x="351" y="98" type="curve" smooth="yes"/>
    </contour>
  </outline>
</glyph>
<glyph name="p" format="2">
  <advance width="819"/>
  <unicode hex="0070"/>
  <outline>
    <contour>
      <point x="19" y="-223" type="line"/>
      <point x="417" y="-223" type="line"/>
      <point x="417" y="-152" type="line"/>
      <point x="415" y="-152" type="line" smooth="yes"/>
      <point x="389" y="-152"/>
      <point x="351" y="-150"/>
      <point x="351" y="-144" type="curve" smooth="yes"/>
      <point x="351" y="376" type="line"/>
      <point x="334" y="374" type="line"/>
      <point x="334" y="513" type="line"/>
      <point x="19" y="513" type="line"/>
      <point x="19" y="439" type="line"/>
      <point x="27" y="437" type="line" smooth="yes"/>
      <point x="51" y="430"/>
      <point x="60" y="426"/>
      <point x="60" y="408" type="curve" smooth="yes"/>
      <point x="60" y="-125" type="line" smooth="yes"/>
      <point x="60" y="-146"/>
      <point x="41" y="-152"/>
      <point x="20" y="-152" type="curve"/>
      <point x="19" y="-152" type="line"/>
    </contour>
    <contour>
      <point x="511" y="-10" type="curve" smooth="yes"/>
      <point x="673" y="-10.0"/>
      <point x="789.0" y="103.0"/>
      <point x="789" y="263" type="curve" smooth="yes"/>
      <point x="789.0" y="419.0"/>
      <point x="684" y="523.0"/>
      <point x="534" y="523.0" type="curve" smooth="yes"/>
      <point x="425" y="523.0"/>
      <point x="359" y="481"/>
      <point x="297" y="379" type="curve"/>
      <point x="297" y="265" type="line"/>
      <point x="350" y="370"/>
      <point x="383" y="418.0"/>
      <point x="428" y="418.0" type="curve" smooth="yes"/>
      <point x="472" y="418.0"/>
      <point x="491.0" y="374.0"/>
      <point x="491" y="263" type="curve" smooth="yes"/>
      <point x="491.0" y="150.0"/>
      <point x="471" y="95.0"/>
      <point x="418" y="95" type="curve" smooth="yes"/>
      <point x="362" y="95.0"/>
      <point x="341" y="149"/>
      <point x="297" y="236" type="curve"/>
      <point x="297" y="91" type="line"/>
      <point x="342" y="27"/>
      <point x="404" y="-10.0"/>
    </contour>
  </outline>
</glyph>
<glyph name="s" format="2">
  <advance width="646"/>
  <unicode hex="0073"/>
  <anchor x="286.36" y="546.0" name="top"/>
  <anchor x="289.9" y="0.0" name="bottom"/>
  <outline>
    <contour>
      <point x="376" y="118" type="curve" smooth="yes"/>
      <point x="376.0" y="86.0"/>
      <point x="346.041095890411" y="73.0"/>
      <point x="295" y="73" type="curve" smooth="yes"/>
      <point x="247" y="73"/>
      <point x="202" y="82"/>
      <point x="173" y="110" type="curve"/>
      <point x="131" y="116"/>
      <point x="136" y="66"/>
      <point x="201" y="45" type="curve"/>
      <point x="201" y="156" type="line"/>
      <point x="18" y="156" type="line"/>
      <point x="18" y="42" type="line"/>
      <point x="51" y="22"/>
      <point x="153" y="-10"/>
      <point x="292" y="-10" type="curve" smooth="yes"/>
      <point x="515.3214285714287" y="-10.0"/>
      <point x="630.0" y="55.702702702702695"/>
      <point x="630" y="177" type="curve" smooth="yes"/>
      <point x="630.0" y="287.6424242424242"/>
      <point x="506.86863266923865" y="316.80413184909327"/>
      <point x="404" y="340" type="curve" smooth="yes"/>
      <point x="312.4148675806018" y="360.8148028225905"/>
      <point x="263.0" y="368.0"/>
      <point x="263" y="405" type="curve" smooth="yes"/>
      <point x="263.0" y="432.0"/>
      <point x="288.09090909090907" y="444.0"/>
      <point x="335" y="444" type="curve" smooth="yes"/>
      <point x="376" y="444"/>
      <point x="403" y="436"/>
      <point x="429" y="415" type="curve"/>
      <point x="446" y="430"/>
      <point x="465" y="462"/>
      <point x="403" y="458" type="curve"/>
      <point x="403" y="376" type="line"/>
      <point x="584" y="376" type="line"/>
      <point x="584" y="478" type="line"/>
      <point x="561" y="493"/>
      <point x="479" y="526"/>
      <point x="332" y="526" type="curve" smooth="yes"/>
      <point x="155.99999999999997" y="526.0"/>
      <point x="31.0" y="470.0"/>
      <point x="31" y="355" type="curve" smooth="yes"/>
      <point x="31.0" y="234.0"/>
      <point x="145.93159572678195" y="207.01728107954983"/>
      <point x="241" y="183" type="curve" smooth="yes"/>
      <point x="321.36433712901606" y="162.90891571774597"/>
      <point x="376.0" y="152.0"/>
    </contour>
  </outline>
</glyph>
<glyph name="w" format="2">
  <advance width="1047"/>
  <unicode hex="0077"/>
  <guideline x="1086" y="190" angle="0" identifier="gUDZBtm9J3"/>
  <anchor x="507.46000000000004" y="551.0" name="top"/>
  <outline>
    <contour>
      <point x="544" y="344" type="line"/>
      <point x="453" y="0" type="line"/>
      <point x="176" y="0" type="line"/>
      <point x="63" y="410" type="line" smooth="yes"/>
      <point x="57" y="435"/>
      <point x="43" y="443"/>
      <point x="12" y="443" type="curve"/>
      <point x="10" y="443" type="line"/>
      <point x="10" y="513" type="line"/>
      <point x="404" y="513" type="line"/>
      <point x="404" y="443" type="line"/>
      <point x="403" y="443" type="line" smooth="yes"/>
      <point x="376" y="443"/>
      <point x="347" y="441"/>
      <point x="347" y="434" type="curve"/>
      <point x="418" y="112" type="line"/>
      <point x="369" y="54" type="line"/>
      <point x="495" y="513" type="line"/>
      <point x="733" y="513" type="line"/>
      <point x="834" y="112" type="line"/>
      <point x="782" y="58" type="line"/>
      <point x="874" y="422" type="line"/>
      <point x="874.0" y="434.0"/>
      <point x="848.0588235294117" y="443"/>
      <point x="825" y="443" type="curve" smooth="yes"/>
      <point x="824" y="443" type="line"/>
      <point x="824" y="513" type="line"/>
      <point x="1038" y="513" type="line"/>
      <point x="1038" y="443" type="line"/>
      <point x="1036" y="443" type="line"/>
      <point x="1012" y="443"/>
      <point x="994" y="432"/>
      <point x="986" y="401" type="curve" smooth="yes"/>
      <point x="875" y="0" type="line"/>
      <point x="598" y="0" type="line"/>
      <point x="521" y="356" type="line"/>
    </contour>
  </outline>
</glyph>
<glyph name="macron" format="2">
  <advance width="595"/>
  <unicode hex="00AF"/>
  <anchor x="297.52" y="526.0" name="_top"/>
  <outline>
    <contour>
      <point x="77" y="703" type="line"/>
      <point x="77" y="589" type="line"/>
      <point x="517" y="589" type="line"/>
      <point x="517" y="703" type="line"/>
    </contour>
  </outline>
</glyph>
<glyph name="acute" format="2">
  <advance width="595"/>
  <unicode hex="00B4"/>
  <anchor x="258.04" y="527.0" name="_top"/>
  <outline>
    <contour>
      <point x="247" y="683" type="curve" smooth="yes"/>
      <point x="219" y="585" type="line"/>
      <point x="219" y="555" type="line"/>
      <point x="303" y="555" type="line"/>
      <point x="389" y="606" type="line" smooth="yes"/>
      <point x="454" y="636"/>
      <point x="484" y="670"/>
      <point x="484" y="711" type="curve" smooth="yes"/>
      <point x="484" y="749"/>
      <point x="444" y="780"/>
      <point x="380" y="780" type="curve" smooth="yes"/>
      <point x="307" y="780"/>
      <point x="268" y="744"/>
    </contour>
  </outline>
</glyph>
<glyph name="germandbls" format="2">
  <advance width="833"/>
  <unicode hex="00DF"/>
  <outline>
    <contour>
      <point x="0" y="513" type="line"/>
      <point x="0" y="433" type="line"/>
      <point x="160" y="433" type="line"/>
      <point x="160" y="513" type="line"/>
    </contour>
    <contour>
      <point x="18" y="0" type="line"/>
      <point x="374" y="0" type="line"/>
      <point x="374" y="556" type="line" smooth="yes"/>
      <point x="374" y="634"/>
      <point x="390" y="660"/>
      <point x="433" y="660" type="curve" smooth="yes"/>
      <point x="469" y="660"/>
      <point x="485" y="636"/>
      <point x="485" y="585" type="curve" smooth="yes"/>
      <point x="485" y="501"/>
      <point x="449" y="464"/>
      <point x="414" y="456" type="curve"/>
      <point x="414" y="381" type="line"/>
      <point x="420" y="380" type="line" smooth="yes"/>
      <point x="473" y="373"/>
      <point x="513" y="311"/>
      <point x="513" y="207" type="curve" smooth="yes"/>
      <point x="513" y="103"/>
      <point x="479" y="78"/>
      <point x="448" y="78" type="curve" smooth="yes"/>
      <point x="431" y="78"/>
      <point x="420" y="85"/>
      <point x="414" y="86" type="curve"/>
      <point x="414" y="9" type="line"/>
      <point x="441" y="0"/>
      <point x="492" y="-10"/>
      <point x="548" y="-10" type="curve" smooth="yes"/>
      <point x="712" y="-10"/>
      <point x="810" y="60"/>
      <point x="810" y="195" type="curve" smooth="yes"/>
      <point x="810" y="326"/>
      <point x="679" y="423"/>
      <point x="479" y="443" type="curve"/>
      <point x="456" y="424" type="line"/>
      <point x="615" y="422"/>
      <point x="749" y="476"/>
      <point x="749" y="584" type="curve" smooth="yes"/>
      <point x="749" y="688"/>
      <point x="632" y="748"/>
      <point x="428" y="748" type="curve" smooth="yes"/>
      <point x="174" y="748"/>
      <point x="83" y="668"/>
      <point x="83" y="534" type="curve" smooth="yes"/>
      <point x="83" y="102" type="line" smooth="yes"/>
      <point x="83" y="80"/>
      <point x="65" y="71"/>
      <point x="32" y="71" type="curve" smooth="yes"/>
      <point x="18" y="71" type="line"/>
    </contour>
  </outline>
</glyph>
<glyph name="eogonek" format="2">
  <advance width="729"/>
  <unicode hex="0119"/>
  <outline>
    <contour>
      <point x="565" y="43" type="line"/>
      <point x="361" y="-8"/>
      <point x="262" y="-57"/>
      <point x="262" y="-138" type="curve" smooth="yes"/>
      <point x="262" y="-208"/>
      <point x="330" y="-244"/>
      <point x="435" y="-244" type="curve" smooth="yes"/>
      <point x="534" y="-244"/>
      <point x="590" y="-215"/>
      <point x="632" y="-170" type="curve"/>
      <point x="575" y="-121" type="line"/>
      <point x="564" y="-131"/>
      <point x="543" y="-149"/>
      <point x="513" y="-149" type="curve" smooth="yes"/>
      <point x="485" y="-149"/>
      <point x="469" y="-136"/>
      <point x="469" y="-108" type="curve" smooth="yes"/>
      <point x="469" y="-67"/>
      <point x="499" y="-32"/>
      <point x="595" y="32" type="curve" smooth="yes"/>
      <point x="635" y="59"/>
      <point x="663" y="84"/>
      <point x="689" y="124" type="curve"/>
      <point x="597" y="171" type="line"/>
      <point x="570" y="128"/>
      <point x="526" y="83"/>
      <point x="451" y="83" type="curve" smooth="yes"/>
      <point x="345" y="83"/>
      <point x="319" y="143"/>
      <point x="319" y="255" type="curve" smooth="yes"/>
      <point x="319" y="387"/>
      <point x="341" y="434"/>
      <point x="383" y="434" type="curve" smooth="yes"/>
      <point x="425" y="434"/>
      <point x="440" y="401"/>
      <point x="442" y="268" type="curve"/>
      <point x="465" y="302" type="line"/>
      <point x="166" y="302" type="line"/>
      <point x="166" y="222" type="line"/>
      <point x="705" y="222" type="line"/>
      <point x="704" y="423"/>
      <point x="590" y="523"/>
      <point x="376" y="523" type="curve" smooth="yes"/>
      <point x="173" y="523"/>
      <point x="27" y="416"/>
      <point x="27" y="255" type="curve" smooth="yes"/>
      <point x="27" y="91"/>
      <point x="165" y="-10"/>
      <point x="397" y="-10" type="curve" smooth="yes"/>
      <point x="464" y="-10"/>
      <point x="519" y="-1"/>
      <point x="563" y="16" type="curve"/>
    </contour>
  </outline>
</glyph>
<glyph name="Uogonek" format="2">
  <advance width="883"/>
  <unicode hex="0172"/>
  <outline>
    <contour>
      <point x="541" y="-244" type="curve" smooth="yes"/>
      <point x="640" y="-244"/>
      <point x="696" y="-215"/>
      <point x="738" y="-170" type="curve"/>
      <point x="682" y="-121" type="line"/>
      <point x="669" y="-131"/>
      <point x="649" y="-149"/>
      <point x="618" y="-149" type="curve" smooth="yes"/>
      <point x="591" y="-149"/>
      <point x="574" y="-136"/>
      <point x="574" y="-108" type="curve" smooth="yes"/>
      <point x="574" y="-62"/>
      <point x="603" y="-13"/>
      <point x="700" y="59" type="curve" smooth="yes"/>
      <point x="765" y="109"/>
      <point x="796" y="180"/>
      <point x="796" y="278" type="curve" smooth="yes"/>
      <point x="796" y="596" type="line" smooth="yes"/>
      <point x="796" y="626"/>
      <point x="818" y="634"/>
      <point x="848" y="634" type="curve" smooth="yes"/>
      <point x="860" y="634" type="line"/>
      <point x="860" y="710" type="line"/>
      <point x="617" y="710" type="line"/>
      <point x="617" y="634" type="line"/>
      <point x="626" y="634" type="line" smooth="yes"/>
      <point x="650" y="634"/>
      <point x="679" y="628"/>
      <point x="679" y="614" type="curve" smooth="yes"/>
      <point x="679" y="278" type="line" smooth="yes"/>
      <point x="679" y="148"/>
      <point x="625" y="95"/>
      <point x="536" y="95" type="curve" smooth="yes"/>
      <point x="436" y="95"/>
      <point x="396" y="143"/>
      <point x="396" y="278" type="curve" smooth="yes"/>
      <point x="396" y="624" type="line" smooth="yes"/>
      <point x="396" y="631"/>
      <point x="425" y="634"/>
      <point x="447" y="634" type="curve" smooth="yes"/>
      <point x="458" y="634" type="line"/>
      <point x="458" y="710" type="line"/>
      <point x="24" y="710" type="line"/>
      <point x="24" y="634" type="line"/>
      <point x="35" y="634" type="line" smooth="yes"/>
      <point x="65" y="634"/>
      <point x="87" y="627"/>
      <point x="87" y="598" type="curve" smooth="yes"/>
      <point x="87" y="278" type="line" smooth="yes"/>
      <point x="87" y="76"/>
      <point x="230" y="-10"/>
      <point x="458" y="-10" type="curve" smooth="yes"/>
      <point x="507" y="-10"/>
      <point x="555" y="-4"/>
      <point x="597" y="10" type="curve"/>
      <point x="647" y="52" type="line"/>
      <point x="468" y="-7"/>
      <point x="367" y="-55"/>
      <point x="367" y="-140" type="curve" smooth="yes"/>
      <point x="367" y="-208"/>
      <point x="436" y="-244"/>
    </contour>
  </outline>
</glyph>
<glyph name="dotaccent" format="2">
  <advance width="595"/>
  <unicode hex="02D9"/>
  <anchor x="297.52" y="526.0" name="_top"/>
  <outline>
    <contour>
      <point x="295" y="567" type="curve" smooth="yes"/>
      <point x="389" y="567"/>
      <point x="442" y="600"/>
      <point x="442" y="658" type="curve" smooth="yes"/>
      <point x="442" y="715"/>
      <point x="389" y="748"/>
      <point x="295" y="748" type="curve" smooth="yes"/>
      <point x="202" y="748"/>
      <point x="147" y="715"/>
      <point x="147" y="658" type="curve" smooth="yes"/>
      <point x="147" y="600"/>
      <point x="202" y="567"/>
    </contour>
  </outline>
</glyph>
<glyph name="ogonek" format="2">
  <advance width="713"/>
  <unicode hex="02DB"/>
  <anchor x="423.5" y="9.0" name="_right"/>
  <outline>
    <contour>
      <point x="448" y="42" type="line"/>
      <point x="257" y="-7"/>
      <point x="157" y="-55"/>
      <point x="157" y="-140" type="curve" smooth="yes"/>
      <point x="157" y="-208"/>
      <point x="226" y="-244"/>
      <point x="330" y="-244" type="curve" smooth="yes"/>
      <point x="429" y="-244"/>
      <point x="485" y="-215"/>
      <point x="528" y="-170" type="curve"/>
      <point x="471" y="-121" type="line"/>
      <point x="460" y="-130"/>
      <point x="439" y="-149"/>
      <point x="408" y="-149" type="curve" smooth="yes"/>
      <point x="380" y="-149"/>
      <point x="364" y="-136"/>
      <point x="364" y="-108" type="curve" smooth="yes"/>
      <point x="364" y="-73"/>
      <point x="393" y="-28"/>
      <point x="500" y="14" type="curve"/>
    </contour>
  </outline>
</glyph>
<glyph name="bullet" format="2">
  <advance width="511"/>
  <unicode hex="2022"/>
  <outline>
    <contour>
      <point x="48" y="341" type="curve" smooth="yes"/>
      <point x="48" y="247"/>
      <point x="135" y="181"/>
      <point x="256" y="181" type="curve" smooth="yes"/>
      <point x="377" y="181"/>
      <point x="463" y="247"/>
      <point x="463" y="341" type="curve" smooth="yes"/>
      <point x="463" y="436"/>
      <point x="377" y="501"/>
      <point x="256" y="501" type="curve" smooth="yes"/>
      <point x="135" y="501"/>
      <point x="48" y="436"/>
    </contour>
  </outline>
</glyph>
<glyph name="estimated" format="2">
  <advance width="999"/>
  <unicode hex="212E"/>
  <outline>
    <contour>
      <point x="217" y="159" type="line"/>
      <point x="285" y="81"/>
      <point x="384" y="45"/>
      <point x="499" y="45" type="curve" smooth="yes"/>
      <point x="666" y="45"/>
      <point x="788" y="122"/>
      <point x="849" y="236" type="curve"/>
      <point x="920" y="236" type="line"/>
      <point x="860" y="98"/>
      <point x="707" y="-10"/>
      <point x="499" y="-10" type="curve" smooth="yes"/>
      <point x="251" y="-10"/>
      <point x="60" y="150"/>
      <point x="60" y="355" type="curve" smooth="yes"/>
      <point x="60" y="560"/>
      <point x="251" y="720"/>
      <point x="499" y="720" type="curve" smooth="yes"/>
      <point x="748" y="720"/>
      <point x="939" y="560"/>
      <point x="939" y="355" type="curve"/>
      <point x="165" y="355" type="line"/>
      <point x="165" y="410" type="line"/>
      <point x="782" y="410" type="line"/>
      <point x="782" y="554" type="line"/>
      <point x="713" y="629"/>
      <point x="615" y="665"/>
      <point x="499" y="665" type="curve" smooth="yes"/>
      <point x="384" y="665"/>
      <point x="285" y="629"/>
      <point x="217" y="554" type="curve"/>
    </contour>
  </outline>
</glyph>
<glyph name="uni25B5" format="2">
  <advance width="992"/>
  <unicode hex="25B5"/>
  <outline>
    <contour>
      <point x="24" y="0" type="line"/>
      <point x="968" y="0" type="line"/>
      <point x="496" y="715" type="line"/>
    </contour>
    <contour>
      <point x="136" y="63" type="line"/>
      <point x="145" y="44" type="line"/>
      <point x="503" y="592" type="line"/>
      <point x="489" y="592" type="line"/>
      <point x="846" y="44" type="line"/>
      <point x="856" y="63" type="line"/>
    </contour>
  </outline>
</glyph>
<glyph name="uni25BF" format="2">
  <advance width="743"/>
  <unicode hex="25BF"/>
  <outline>
    <contour>
      <point x="690" y="464" type="line"/>
      <point x="54" y="464" type="line"/>
      <point x="371" y="91" type="line"/>
    </contour>
    <contour>
      <point x="588" y="414" type="line"/>
      <point x="580" y="430" type="line"/>
      <point x="365" y="175" type="line"/>
      <point x="378" y="175" type="line"/>
      <point x="163" y="430" type="line"/>
      <point x="155" y="414" type="line"/>
    </contour>
  </outline>
</glyph>
<glyph name="F.alt" format="2">
  <advance width="742"/>
  <outline>
    <contour>
      <point x="26" y="0" type="line"/>
      <point x="485" y="0" type="line"/>
      <point x="485" y="76" type="line"/>
      <point x="465" y="76" type="line" smooth="yes"/>
      <point x="435" y="76"/>
      <point x="398" y="77"/>
      <point x="398" y="112" type="curve" smooth="yes"/>
      <point x="398" y="624" type="line"/>
      <point x="478" y="624" type="line" smooth="yes"/>
      <point x="536" y="624"/>
      <point x="577" y="617"/>
      <point x="581" y="581" type="curve" smooth="yes"/>
      <point x="588" y="517" type="line"/>
      <point x="714" y="517" type="line"/>
      <point x="714" y="710" type="line"/>
      <point x="26" y="710" type="line"/>
      <point x="26" y="634" type="line"/>
      <point x="38" y="634" type="line" smooth="yes"/>
      <point x="68" y="634"/>
      <point x="89" y="627"/>
      <point x="89" y="598" type="curve" smooth="yes"/>
      <point x="89" y="112" type="line" smooth="yes"/>
      <point x="89" y="83"/>
      <point x="68" y="76"/>
      <point x="38" y="76" type="curve" smooth="yes"/>
      <point x="26" y="76" type="line"/>
    </contour>
    <contour>
      <point x="315" y="313" type="line"/>
      <point x="477" y="313" type="line" smooth="yes"/>
      <point x="511" y="313"/>
      <point x="522" y="291"/>
      <point x="522" y="265" type="curve" smooth="yes"/>
      <point x="522" y="259" type="line"/>
      <point x="621" y="259" type="line"/>
      <point x="621" y="451" type="line"/>
      <point x="522" y="451" type="line"/>
      <point x="522" y="445" type="line" smooth="yes"/>
      <point x="522" y="419"/>
      <point x="511" y="396"/>
      <point x="477" y="396" type="curve" smooth="yes"/>
      <point x="315" y="396" type="line"/>
    </contour>
  </outline>
</glyph>
<glyph name="blacksquare" format="2">
  <advance width="699"/>
  <outline>
    <contour>
      <point x="101" y="104" type="line"/>
      <point x="598" y="104" type="line"/>
      <point x="598" y="522" type="line"/>
      <point x="101" y="522" type="line"/>
    </contour>
  </outline>
</glyph>
<glyph name="circumflex_grave.uc" format="2">
  <advance width="606"/>
  <anchor x="291.44000000000005" y="696.0" name="_top"/>
  <outline>
    <contour>
      <point x="654" y="972" type="line" smooth="yes"/>
      <point x="622" y="1021"/>
      <point x="590" y="1048"/>
      <point x="530" y="1048" type="curve" smooth="yes"/>
      <point x="478" y="1048"/>
      <point x="444" y="1019"/>
      <point x="444" y="984" type="curve" smooth="yes"/>
      <point x="444" y="936"/>
      <point x="482" y="913"/>
      <point x="553" y="892" type="curve" smooth="yes"/>
      <point x="630" y="865" type="line"/>
      <point x="701" y="865" type="line"/>
      <point x="701" y="892" type="line"/>
    </contour>
    <component base="circumflex.uc" xOffset="59.94000000000001"/>
  </outline>
</glyph>
<glyph name="five.lin" format="2">
  <advance width="666"/>
  <outline>
    <contour>
      <point x="319" y="-10" type="curve" smooth="yes"/>
      <point x="146" y="-10"/>
      <point x="54" y="60"/>
      <point x="10" y="151" type="curve"/>
      <point x="122" y="206" type="line"/>
      <point x="149" y="153"/>
      <point x="196" y="85"/>
      <point x="275" y="85" type="curve" smooth="yes"/>
      <point x="346" y="85"/>
      <point x="379" y="143"/>
      <point x="379" y="241" type="curve" smooth="yes"/>
      <point x="379" y="328"/>
      <point x="349" y="380"/>
      <point x="284" y="380" type="curve" smooth="yes"/>
      <point x="232" y="380"/>
      <point x="204" y="353"/>
      <point x="186" y="309" type="curve"/>
      <point x="72" y="309" type="line"/>
      <point x="72" y="710" type="line"/>
      <point x="584" y="710" type="line"/>
      <point x="566" y="564" type="line"/>
      <point x="165" y="564" type="line"/>
      <point x="196" y="690" type="line"/>
      <point x="196" y="377" type="line"/>
      <point x="190" y="364"/>
      <point x="175" y="359"/>
      <point x="163" y="370" type="curve"/>
      <point x="204" y="425"/>
      <point x="262" y="467"/>
      <point x="384" y="467" type="curve" smooth="yes"/>
      <point x="550" y="467"/>
      <point x="645" y="369"/>
      <point x="645" y="240" type="curve" smooth="yes"/>
      <point x="645" y="88"/>
      <point x="520" y="-10"/>
    </contour>
  </outline>
</glyph>
<glyph name="nine.old" format="2">
  <advance width="666"/>
  <outline>
    <contour>
      <point x="78" y="-80" type="line"/>
      <point x="261" y="-60"/>
      <point x="380" y="50"/>
      <point x="380" y="277" type="curve" smooth="yes"/>
      <point x="380" y="430"/>
      <point x="366" y="473"/>
      <point x="335" y="473" type="curve" smooth="yes"/>
      <point x="302" y="473"/>
      <point x="289" y="429"/>
      <point x="289" y="333" type="curve" smooth="yes"/>
      <point x="289" y="250"/>
      <point x="295" y="202"/>
      <point x="340" y="202" type="curve" smooth="yes"/>
      <point x="372" y="202"/>
      <point x="398" y="239"/>
      <point x="424" y="289" type="curve"/>
      <point x="429" y="217" type="line"/>
      <point x="410" y="170"/>
      <point x="365" y="117"/>
      <point x="259" y="117" type="curve" smooth="yes"/>
      <point x="116" y="117"/>
      <point x="18" y="189"/>
      <point x="18" y="327" type="curve" smooth="yes"/>
      <point x="18" y="469"/>
      <point x="142" y="558"/>
      <point x="328" y="558" type="curve" smooth="yes"/>
      <point x="534" y="558"/>
      <point x="648" y="468"/>
      <point x="648" y="269" type="curve" smooth="yes"/>
      <point x="648" y="31"/>
      <point x="425" y="-138"/>
      <point x="95" y="-164" type="curve"/>
    </contour>
  </outline>
</glyph>
<glyph name="seven.lin" format="2">
  <advance width="666"/>
  <outline>
    <contour>
      <point x="268" y="564" type="line" smooth="yes"/>
      <point x="195" y="564"/>
      <point x="167" y="557"/>
      <point x="163" y="521" type="curve" smooth="yes"/>
      <point x="155" y="446" type="line"/>
      <point x="60" y="446" type="line"/>
      <point x="60" y="710" type="line"/>
      <point x="641" y="710" type="line"/>
      <point x="641" y="577" type="line"/>
      <point x="517" y="434"/>
      <point x="446" y="309"/>
      <point x="438" y="0" type="curve"/>
      <point x="176" y="0" type="line"/>
      <point x="201" y="294"/>
      <point x="448" y="517"/>
      <point x="558" y="599" type="curve"/>
      <point x="588" y="564" type="line"/>
    </contour>
  </outline>
</glyph>
<glyph name="two.lin" format="2">
  <advance width="666"/>
  <outline>
    <contour>
      <point x="321" y="720" type="curve" smooth="yes"/>
      <point x="520" y="720"/>
      <point x="622" y="645"/>
      <point x="622" y="520" type="curve" smooth="yes"/>
      <point x="622" y="346"/>
      <point x="357" y="210"/>
      <point x="145" y="117" type="curve"/>
      <point x="119" y="118"/>
      <point x="126" y="139"/>
      <point x="127" y="145" type="curve"/>
      <point x="383" y="145" type="line" smooth="yes"/>
      <point x="473" y="145"/>
      <point x="505" y="152"/>
      <point x="513" y="188" type="curve" smooth="yes"/>
      <point x="523" y="242" type="line"/>
      <point x="632" y="242" type="line"/>
      <point x="632" y="0" type="line"/>
      <point x="23" y="0" type="line"/>
      <point x="23" y="158" type="line"/>
      <point x="218" y="271"/>
      <point x="351" y="364"/>
      <point x="351" y="523" type="curve" smooth="yes"/>
      <point x="351" y="601"/>
      <point x="325" y="629"/>
      <point x="279" y="629" type="curve" smooth="yes"/>
      <point x="244" y="629"/>
      <point x="219" y="607"/>
      <point x="203" y="580" type="curve"/>
      <point x="198" y="588"/>
      <point x="193" y="637"/>
      <point x="233" y="640" type="curve"/>
      <point x="233" y="512" type="line"/>
      <point x="28" y="512" type="line"/>
      <point x="28" y="644" type="line"/>
      <point x="78" y="681"/>
      <point x="184" y="720"/>
    </contour>
  </outline>
</glyph>
<glyph name="whitecircle" format="2">
  <advance width="704"/>
  <outline>
    <contour>
      <point x="352" y="80" type="curve" smooth="yes"/>
      <point x="502" y="80"/>
      <point x="621" y="177"/>
      <point x="621" y="304" type="curve" smooth="yes"/>
      <point x="621" y="431"/>
      <point x="502" y="528"/>
      <point x="352" y="528" type="curve" smooth="yes"/>
      <point x="202" y="528"/>
      <point x="83" y="431"/>
      <point x="83" y="304" type="curve" smooth="yes"/>
      <point x="83" y="177"/>
      <point x="202" y="80"/>
    </contour>
    <contour>
      <point x="352" y="137" type="curve" smooth="yes"/>
      <point x="238" y="137"/>
      <point x="155" y="205"/>
      <point x="155" y="304" type="curve" smooth="yes"/>
      <point x="155" y="403"/>
      <point x="238" y="471"/>
      <point x="352" y="471" type="curve" smooth="yes"/>
      <point x="466" y="471"/>
      <point x="549" y="403"/>
      <point x="549" y="304" type="curve" smooth="yes"/>
      <point x="549" y="205"/>
      <point x="466" y="137"/>
    </contour>
  </outline>
</glyph>
<glyph name="zero.slashold" format="2">
  <advance width="666"/>
  <outline>
    <contour>
      <point x="196" y="103" type="line"/>
      <point x="471" y="348" type="line"/>
      <point x="471" y="443" type="line"/>
      <point x="196" y="197" type="line"/>
    </contour>
    <contour>
      <point x="345" y="78" type="curve" smooth="yes"/>
      <point x="289" y="78"/>
      <point x="275" y="118"/>
      <point x="275" y="273" type="curve" smooth="yes"/>
      <point x="275" y="428"/>
      <point x="286" y="469"/>
      <point x="333" y="469" type="curve" smooth="yes"/>
      <point x="379" y="469"/>
      <point x="391" y="428"/>
      <point x="391" y="273" type="curve" smooth="yes"/>
      <point x="391" y="118"/>
      <point x="381" y="78"/>
    </contour>
    <contour>
      <point x="333" y="-11" type="curve" smooth="yes"/>
      <point x="520" y="-11"/>
      <point x="653" y="97"/>
      <point x="653" y="273" type="curve" smooth="yes"/>
      <point x="653" y="449"/>
      <point x="520" y="558"/>
      <point x="333" y="558" type="curve" smooth="yes"/>
      <point x="146" y="558"/>
      <point x="13" y="449"/>
      <point x="13" y="273" type="curve" smooth="yes"/>
      <point x="13" y="97"/>
      <point x="146" y="-11"/>
    </contour>
  </outline>
</glyph>
